<svg xmlns="http://www.w3.org/2000/svg" viewBox="0 0 64 64">
  <rect x="7" y="12" width="50" height="40" rx="10" fill="#27272a"/>
  <rect x="7" y="12" width="50" height="40" rx="10" fill="none" stroke="#f9fafb" stroke-opacity=".28" stroke-width="2"/>
  <path
    fill="#f9fafb"
    d="M27 39.5c-1.5 1-3.3 1.5-5.2 1.5-5.1 0-9-4-9-9s3.9-9 9-9c1.9 0 3.7.5 5.2 1.5l-2 4.1c-.9-.7-1.9-1.1-3.1-1.1-2.3 0-4 1.9-4 4.5s1.7 4.5 4 4.5c1.2 0 2.2-.4 3.1-1.1z"
  />
  <rect x="32" y="36" width="19" height="5" rx="2.5" fill="#38bdf8"/>
</svg>
