<svg xmlns="http://www.w3.org/2000/svg" viewBox="0 0 16 16">
  <path
    fill="#facc15"
    d="M7.14 2.23a1 1 0 0 1 1.72 0l5.22 9.05a1 1 0 0 1-.86 1.5H2.78a1 1 0 0 1-.86-1.5z"
  />
  <path
    fill="#111827"
    d="M8 1.25a1.85 1.85 0 0 0-1.6.93L1.18 11.22A1.85 1.85 0 0 0 2.78 14h10.44a1.85 1.85 0 0 0 1.6-2.78L9.6 2.18A1.85 1.85 0 0 0 8 1.25m0 1.5 5.2 9H2.8z"
  />
  <path
    fill="#111827"
    d="M7.08 5.2a.75.75 0 0 1 .75-.8h.34a.75.75 0 0 1 .75.8l-.23 3.25a.69.69 0 0 1-.69.65.69.69 0 0 1-.69-.65zm.92 6.05a.9.9 0 1 0 0-1.8.9.9 0 0 0 0 1.8M11.35 1.75l.7 1.25 1.35-.6-.6 1.35 1.25.7-1.38.38.18 1.42-1.08-.94-1.08.94.18-1.42-1.38-.38 1.25-.7-.6-1.35 1.35.6z"
  />
</svg>
